<svg xmlns="http://www.w3.org/2000/svg" width="1422.667" height="645.333" viewBox="0 0 1067 484"><defs><linearGradient id="b" x1="0" x2="0" y1="0" y2="1"><stop offset="0%" stop-color="#3a3a3a"/><stop offset="100%" stop-color="#1e1e1e"/></linearGradient><clipPath id="a"><path d="M500.4.9C487.7 1.6 486 2.4 486 8v3.8l41.3-.1c43.9 0 76.7 1.2 120.1 4.3 14.8 1.1 27.2 2 27.7 2 1.7 0 1-7.6-.8-9.3C668.8 3.8 549.1-1.5 500.4.9m237.2 15.4c-1.2.9-1.9 2.8-2 5.2l-.1 3.9 12.5 1.8c69.9 9.9 149.6 25.8 167.8 33.4 4.8 2 4.9 1.9 5.7-2.7 1-5.9-.7-7.1-17-11.8-44.3-12.7-91.4-22.1-143-28.6-23.4-2.9-21.6-2.8-23.9-1.2M304 18.1c-65.7 8.6-156.3 29-160 35.9-1.3 2.4-.2 10 1.4 10 .7 0 5.2-1.4 10.2-3 4.9-1.7 15.2-4.4 22.9-6s18.1-3.8 23-5c5-1.2 20.3-4.5 34-7.5 23.9-5.1 33.5-6.8 75.8-13.1l18.8-2.8-.6-3.1c-1.6-7.7-4.2-8.2-25.5-5.4m202.2.1c-28.4.7-71 3.1-97.2 5.4-15.3 1.3-25.1 2.4-64.5 7.5-44.6 5.7-99 15.6-147.5 26.9l-12.5 2.9h10.3c116.9.8 212.2 97 212.2 214.1 0 74.6-40.3 145.8-103.9 183.7-4.2 2.4-6.7 4.2-5.6 4 1.1-.3 5.2-1.5 9-2.6 153.1-44.3 299.7-43.7 461 1.8 7.7 2.2 14.1 3.8 14.2 3.7s-3.7-2.5-8.5-5.3c-36.4-21.3-69.1-57.7-86.3-96.3-63.6-142.5 39.4-301.1 196.3-302.1 15.2-.1 14.9-.3-6.2-5-22.4-4.9-48-9.8-80-15.4-13.5-2.4-45.1-7.2-62-9.4-8.5-1.2-18.6-2.6-22.5-3.1-53.8-7.5-146.9-12.4-206.3-10.8m-25.8 219.4c1.7 1.8 2.6 3.7 2.6 5.9s-.9 4.1-2.6 5.9l-2.7 2.6h-42.4l-2.7-2.6c-1.7-1.8-2.6-3.7-2.6-5.9s.9-4.1 2.6-5.9l2.7-2.6h42.4zm150 0c1.7 1.8 2.6 3.7 2.6 5.9s-.9 4.1-2.6 5.9l-2.7 2.6h-42.4l-2.7-2.6c-1.7-1.8-2.6-3.7-2.6-5.9s.9-4.1 2.6-5.9l2.7-2.6h42.4z"/><path d="M220.5 154.4c-.5.3-3.1.7-5.7 1.1l-4.7.6-.3 32.4c-.4 45.2 2.8 41.9-41.8 42.3l-31.9.3-.8 3.7c-.4 2-.8 8.9-.8 15.2s.4 13.2.8 15.2l.8 3.7 31.9.3c44.6.4 41.4-2.9 41.8 42.3l.3 32.4 4.7.8c5.9 1 26.8 1 30.4 0l2.7-.7.3-32.4c.4-45.4-3-42 42.8-42.4l32.9-.3.8-3.7c.4-2 .8-8.9.8-15.2s-.4-13.2-.8-15.2l-.8-3.7-32.9-.3c-45.8-.4-42.4 2.9-42.8-42.3-.3-29.4-.4-32.4-2-33-1.9-.8-24.2-1.7-25.7-1.1m17.2 80.7c14.7 5.5 14.7 27.3 0 32.8-11.2 4.2-23.7-4.4-23.7-16.3 0-12.1 12.4-20.8 23.7-16.5"/><path d="M225.8 241.6c-7.6 4.1-7.4 15.9.2 19.9 5.7 3 12.7 1 15.5-4.5 5.3-10.3-5.5-21-15.7-15.4m28.2-53.9v30.5l3.4 3.4 3.4 3.4h30.6c34.9 0 32.2.9 28-9.7-10.8-27-34.2-49-60.1-56.6l-5.3-1.6zm-56.3-28.1c-25.9 9.4-46.7 29.8-57.1 55.7-4.2 10.6-6.7 9.7 26.4 9.7 30.9 0 32.5-.2 35.3-5 2.2-3.7 2.6-62.1.5-61.9-.7 0-3 .7-5.1 1.5M138 276.4c0 10.8 18.1 37.8 33.3 49.4 8.5 6.6 27.3 16.2 31.6 16.2.8 0 1.1-9.2 1.1-30.1v-30.1l-3.4-3.4-3.4-3.4h-29.6c-24.4 0-29.6.2-29.6 1.4m119.4 2-3.4 3.4v61.1l5.3-1.6c25.9-7.6 49.3-29.6 60.1-56.6 4.2-10.6 6.9-9.7-28-9.7h-30.6zM866.5 68.6c-1.6.2-7.2.9-12.4 1.5-73.8 8.6-141.7 63.4-167.6 135.4-44.7 124 36.8 258.5 167.5 276.6 66.9 9.3 141.6-28 180-90 67.9-109.5 25.9-250.6-93.2-312.6-17.8-9.2-49-13.8-74.3-10.9m104 80.9c36.4 9.5 48.6 54.2 22 81.1-26.2 26.6-71.5 14.2-81-22.1-9.1-35.1 23.9-68.1 59-59m-106 49c36.4 9.5 48.6 54.2 22 81.1-26.2 26.6-71.5 14.2-81-22.1-9.1-35.1 23.9-68.1 59-59m-95 68c36.4 9.5 48.6 54.2 22 81.1-26.2 26.6-71.5 14.2-81-22.1-9.1-35.1 23.9-68.1 59-59"/></clipPath></defs><path fill="#0a0a0a" d="M500.4.9C487.7 1.6 486 2.4 486 8v3.8l41.3-.1c43.9 0 76.7 1.2 120.1 4.3 14.8 1.1 27.2 2 27.7 2 1.7 0 1-7.6-.8-9.3C668.8 3.8 549.1-1.5 500.4.9m237.2 15.4c-1.2.9-1.9 2.8-2 5.2l-.1 3.9 12.5 1.8c69.9 9.9 149.6 25.8 167.8 33.4 4.8 2 4.9 1.9 5.7-2.7 1-5.9-.7-7.1-17-11.8-44.3-12.7-91.4-22.1-143-28.6-23.4-2.9-21.6-2.8-23.9-1.2M304 18.1c-65.7 8.6-156.3 29-160 35.9-1.3 2.4-.2 10 1.4 10 .7 0 5.2-1.4 10.2-3 4.9-1.7 15.2-4.4 22.9-6s18.1-3.8 23-5c5-1.2 20.3-4.5 34-7.5 23.9-5.1 33.5-6.8 75.8-13.1l18.8-2.8-.6-3.1c-1.6-7.7-4.2-8.2-25.5-5.4m202.2.1c-28.4.7-71 3.1-97.2 5.4-15.3 1.3-25.1 2.4-64.5 7.5-44.6 5.7-99 15.6-147.5 26.9l-12.5 2.9h10.3c116.9.8 212.2 97 212.2 214.1 0 74.6-40.3 145.8-103.9 183.7-4.2 2.4-6.7 4.2-5.6 4 1.1-.3 5.2-1.5 9-2.6 153.1-44.3 299.7-43.7 461 1.8 7.7 2.2 14.1 3.8 14.2 3.7s-3.7-2.5-8.5-5.3c-36.4-21.3-69.1-57.7-86.3-96.3-63.6-142.5 39.4-301.1 196.3-302.1 15.2-.1 14.9-.3-6.2-5-22.4-4.9-48-9.8-80-15.4-13.5-2.4-45.1-7.2-62-9.4-8.5-1.2-18.6-2.6-22.5-3.1-53.8-7.5-146.9-12.4-206.3-10.8m-25.8 219.4c1.7 1.8 2.6 3.7 2.6 5.9s-.9 4.1-2.6 5.9l-2.7 2.6h-42.4l-2.7-2.6c-1.7-1.8-2.6-3.7-2.6-5.9s.9-4.1 2.6-5.9l2.7-2.6h42.4zm150 0c1.7 1.8 2.6 3.7 2.6 5.9s-.9 4.1-2.6 5.9l-2.7 2.6h-42.4l-2.7-2.6c-1.7-1.8-2.6-3.7-2.6-5.9s.9-4.1 2.6-5.9l2.7-2.6h42.4z"/><path fill="#0a0a0a" d="M220.5 154.4c-.5.3-3.1.7-5.7 1.1l-4.7.6-.3 32.4c-.4 45.2 2.8 41.9-41.8 42.3l-31.9.3-.8 3.7c-.4 2-.8 8.9-.8 15.2s.4 13.2.8 15.2l.8 3.7 31.9.3c44.6.4 41.4-2.9 41.8 42.3l.3 32.4 4.7.8c5.9 1 26.8 1 30.4 0l2.7-.7.3-32.4c.4-45.4-3-42 42.8-42.4l32.9-.3.8-3.7c.4-2 .8-8.9.8-15.2s-.4-13.2-.8-15.2l-.8-3.7-32.9-.3c-45.8-.4-42.4 2.9-42.8-42.3-.3-29.4-.4-32.4-2-33-1.9-.8-24.2-1.7-25.7-1.1m17.2 80.7c14.7 5.5 14.7 27.3 0 32.8-11.2 4.2-23.7-4.4-23.7-16.3 0-12.1 12.4-20.8 23.7-16.5"/><path fill="#0a0a0a" d="M225.8 241.6c-7.6 4.1-7.4 15.9.2 19.9 5.7 3 12.7 1 15.5-4.5 5.3-10.3-5.5-21-15.7-15.4m28.2-53.9v30.5l3.4 3.4 3.4 3.4h30.6c34.9 0 32.2.9 28-9.7-10.8-27-34.2-49-60.1-56.6l-5.3-1.6zm-56.3-28.1c-25.9 9.4-46.7 29.8-57.1 55.7-4.2 10.6-6.7 9.7 26.4 9.7 30.9 0 32.5-.2 35.3-5 2.2-3.7 2.6-62.1.5-61.9-.7 0-3 .7-5.1 1.5M138 276.4c0 10.8 18.1 37.8 33.3 49.4 8.5 6.6 27.3 16.2 31.6 16.2.8 0 1.1-9.2 1.1-30.1v-30.1l-3.4-3.4-3.4-3.4h-29.6c-24.4 0-29.6.2-29.6 1.4m119.4 2-3.4 3.4v61.1l5.3-1.6c25.9-7.6 49.3-29.6 60.1-56.6 4.2-10.6 6.9-9.7-28-9.7h-30.6zM866.5 68.6c-1.6.2-7.2.9-12.4 1.5-73.8 8.6-141.7 63.4-167.6 135.4-44.7 124 36.8 258.5 167.5 276.6 66.9 9.3 141.6-28 180-90 67.9-109.5 25.9-250.6-93.2-312.6-17.8-9.2-49-13.8-74.3-10.9m104 80.9c36.4 9.5 48.6 54.2 22 81.1-26.2 26.6-71.5 14.2-81-22.1-9.1-35.1 23.9-68.1 59-59m-106 49c36.4 9.5 48.6 54.2 22 81.1-26.2 26.6-71.5 14.2-81-22.1-9.1-35.1 23.9-68.1 59-59m-95 68c36.4 9.5 48.6 54.2 22 81.1-26.2 26.6-71.5 14.2-81-22.1-9.1-35.1 23.9-68.1 59-59"/><path fill="url(#b)" d="M500.4.9C487.7 1.6 486 2.4 486 8v3.8l41.3-.1c43.9 0 76.7 1.2 120.1 4.3 14.8 1.1 27.2 2 27.7 2 1.7 0 1-7.6-.8-9.3C668.8 3.8 549.1-1.5 500.4.9m237.2 15.4c-1.2.9-1.9 2.8-2 5.2l-.1 3.9 12.5 1.8c69.9 9.9 149.6 25.8 167.8 33.4 4.8 2 4.9 1.9 5.7-2.7 1-5.9-.7-7.1-17-11.8-44.3-12.7-91.4-22.1-143-28.6-23.4-2.9-21.6-2.8-23.9-1.2M304 18.1c-65.7 8.6-156.3 29-160 35.9-1.3 2.4-.2 10 1.4 10 .7 0 5.2-1.4 10.2-3 4.9-1.7 15.2-4.4 22.9-6s18.1-3.8 23-5c5-1.2 20.3-4.5 34-7.5 23.9-5.1 33.5-6.8 75.8-13.1l18.8-2.8-.6-3.1c-1.6-7.7-4.2-8.2-25.5-5.4m202.2.1c-28.4.7-71 3.1-97.2 5.4-15.3 1.3-25.1 2.4-64.5 7.5-44.6 5.7-99 15.6-147.5 26.9l-12.5 2.9h10.3c116.9.8 212.2 97 212.2 214.1 0 74.6-40.3 145.8-103.9 183.7-4.2 2.4-6.7 4.2-5.6 4 1.1-.3 5.2-1.5 9-2.6 153.1-44.3 299.7-43.7 461 1.8 7.7 2.2 14.1 3.8 14.2 3.7s-3.7-2.5-8.5-5.3c-36.4-21.3-69.1-57.7-86.3-96.3-63.6-142.5 39.4-301.1 196.3-302.1 15.2-.1 14.9-.3-6.2-5-22.4-4.9-48-9.8-80-15.4-13.5-2.4-45.1-7.2-62-9.4-8.5-1.2-18.6-2.6-22.5-3.1-53.8-7.5-146.9-12.4-206.3-10.8m-25.8 219.4c1.7 1.8 2.6 3.7 2.6 5.9s-.9 4.1-2.6 5.9l-2.7 2.6h-42.4l-2.7-2.6c-1.7-1.8-2.6-3.7-2.6-5.9s.9-4.1 2.6-5.9l2.7-2.6h42.4zm150 0c1.7 1.8 2.6 3.7 2.6 5.9s-.9 4.1-2.6 5.9l-2.7 2.6h-42.4l-2.7-2.6c-1.7-1.8-2.6-3.7-2.6-5.9s.9-4.1 2.6-5.9l2.7-2.6h42.4z"/><path fill="url(#b)" d="M220.5 154.4c-.5.3-3.1.7-5.7 1.1l-4.7.6-.3 32.4c-.4 45.2 2.8 41.9-41.8 42.3l-31.9.3-.8 3.7c-.4 2-.8 8.9-.8 15.2s.4 13.2.8 15.2l.8 3.7 31.9.3c44.6.4 41.4-2.9 41.8 42.3l.3 32.4 4.7.8c5.9 1 26.8 1 30.4 0l2.7-.7.3-32.4c.4-45.4-3-42 42.8-42.4l32.9-.3.8-3.7c.4-2 .8-8.9.8-15.2s-.4-13.2-.8-15.2l-.8-3.7-32.9-.3c-45.8-.4-42.4 2.9-42.8-42.3-.3-29.4-.4-32.4-2-33-1.9-.8-24.2-1.7-25.7-1.1m17.2 80.7c14.7 5.5 14.7 27.3 0 32.8-11.2 4.2-23.7-4.4-23.7-16.3 0-12.1 12.4-20.8 23.7-16.5"/><path fill="url(#b)" d="M225.8 241.6c-7.6 4.1-7.4 15.9.2 19.9 5.7 3 12.7 1 15.5-4.5 5.3-10.3-5.5-21-15.7-15.4m28.2-53.9v30.5l3.4 3.4 3.4 3.4h30.6c34.9 0 32.2.9 28-9.7-10.8-27-34.2-49-60.1-56.6l-5.3-1.6zm-56.3-28.1c-25.9 9.4-46.7 29.8-57.1 55.7-4.2 10.6-6.7 9.7 26.4 9.7 30.9 0 32.5-.2 35.3-5 2.2-3.7 2.6-62.1.5-61.9-.7 0-3 .7-5.1 1.5M138 276.4c0 10.8 18.1 37.8 33.3 49.4 8.5 6.6 27.3 16.2 31.6 16.2.8 0 1.1-9.2 1.1-30.1v-30.1l-3.4-3.4-3.4-3.4h-29.6c-24.4 0-29.6.2-29.6 1.4m119.4 2-3.4 3.4v61.1l5.3-1.6c25.9-7.6 49.3-29.6 60.1-56.6 4.2-10.6 6.9-9.7-28-9.7h-30.6zM866.5 68.6c-1.6.2-7.2.9-12.4 1.5-73.8 8.6-141.7 63.4-167.6 135.4-44.7 124 36.8 258.5 167.5 276.6 66.9 9.3 141.6-28 180-90 67.9-109.5 25.9-250.6-93.2-312.6-17.8-9.2-49-13.8-74.3-10.9m104 80.9c36.4 9.5 48.6 54.2 22 81.1-26.2 26.6-71.5 14.2-81-22.1-9.1-35.1 23.9-68.1 59-59m-106 49c36.4 9.5 48.6 54.2 22 81.1-26.2 26.6-71.5 14.2-81-22.1-9.1-35.1 23.9-68.1 59-59m-95 68c36.4 9.5 48.6 54.2 22 81.1-26.2 26.6-71.5 14.2-81-22.1-9.1-35.1 23.9-68.1 59-59"/><path fill="#888" d="M172 68.1c-36.8 4-64.2 18-100 51C-30.3 213.4-20.4 377.9 92.1 452c119.9 79 286.2-1.8 307-149C417.6 171.7 303.4 53.5 172 68.1m83 55.3c101.3 22 139.6 143.7 68.7 218.3-61.5 64.7-170.1 48.6-210.4-31.2-39.4-77.9 8.5-173.8 93.7-187.5 4.1-.6 8.2-1.3 9-1.5 3.9-1 32.2.4 39 1.9"/></svg>